<svg width="29" height="28" viewBox="0 0 29 28" fill="none" xmlns="http://www.w3.org/2000/svg">
<path d="M23.9975 25.667V19.8337C23.9975 17.6338 23.9975 16.5339 23.314 15.8504C22.6306 15.167 21.5307 15.167 19.3308 15.167L14.6641 25.667L9.99748 15.167C7.79759 15.167 6.69764 15.167 6.01423 15.8504C5.33081 16.5339 5.33081 17.6338 5.33081 19.8337V25.667" stroke="#272B35" stroke-width="1.75" stroke-linecap="round" stroke-linejoin="round"/>
<path d="M14.6694 17.5003L14.086 22.167L14.6694 23.917L15.2527 22.167L14.6694 17.5003ZM14.6694 17.5003L13.5027 15.167H15.836L14.6694 17.5003Z" stroke="#272B35" stroke-width="1.75" stroke-linecap="round" stroke-linejoin="round"/>
<path d="M18.7475 7.58398V6.41732C18.7475 4.16216 16.9193 2.33398 14.6641 2.33398C12.409 2.33398 10.5808 4.16216 10.5808 6.41732V7.58398C10.5808 9.83915 12.409 11.6673 14.6641 11.6673C16.9193 11.6673 18.7475 9.83915 18.7475 7.58398Z" stroke="#272B35" stroke-width="1.75" stroke-linecap="round" stroke-linejoin="round"/>
</svg>
