<svg width="29" height="28" viewBox="0 0 29 28" fill="none" xmlns="http://www.w3.org/2000/svg">
<path d="M8.50016 10.5H7.3335M13.1668 10.5H12.0002M8.50016 7H7.3335M13.1668 7H12.0002" stroke="#272B35" stroke-width="1.75" stroke-linecap="round" stroke-linejoin="round"/>
<path d="M21.9142 17.4997H20.7476M21.9142 12.833H20.7476" stroke="#272B35" stroke-width="1.75" stroke-linecap="round" stroke-linejoin="round"/>
<path d="M16.6668 9.33297V24.4997H26.0002V11.6663C26.0002 10.3776 24.9555 9.33297 23.6668 9.33297H16.6668ZM16.6668 9.33297V4.66634C16.6668 3.37768 15.6222 2.33301 14.3335 2.33301H6.16683C4.87816 2.33301 3.8335 3.37768 3.8335 4.66634V11.6663" stroke="#272B35" stroke-width="1.75" stroke-linecap="round" stroke-linejoin="round"/>
<path d="M12.0028 25.6667V26.5417C12.486 26.5417 12.8778 26.1499 12.8778 25.6667H12.0028ZM2.66943 25.6667H1.79443C1.79443 26.1499 2.18619 26.5417 2.66943 26.5417V25.6667ZM8.79443 16.3333C8.79443 17.1388 8.14152 17.7917 7.3361 17.7917V19.5417C9.10801 19.5417 10.5444 18.1053 10.5444 16.3333H8.79443ZM7.3361 17.7917C6.53068 17.7917 5.87777 17.1388 5.87777 16.3333H4.12777C4.12777 18.1053 5.56418 19.5417 7.3361 19.5417V17.7917ZM5.87777 16.3333C5.87777 15.5279 6.53068 14.875 7.3361 14.875V13.125C5.56418 13.125 4.12777 14.5614 4.12777 16.3333H5.87777ZM7.3361 14.875C8.14152 14.875 8.79443 15.5279 8.79443 16.3333H10.5444C10.5444 14.5614 9.10801 13.125 7.3361 13.125V14.875ZM12.0028 24.7917H2.66943V26.5417H12.0028V24.7917ZM3.54443 25.6667C3.54443 23.5726 5.24202 21.875 7.3361 21.875V20.125C4.27551 20.125 1.79443 22.606 1.79443 25.6667H3.54443ZM7.3361 21.875C9.43018 21.875 11.1278 23.5726 11.1278 25.6667H12.8778C12.8778 22.606 10.3967 20.125 7.3361 20.125V21.875Z" fill="#272B35"/>
</svg>
